<mxfile host="Electron" modified="2025-02-26T19:52:27.101Z" agent="Mozilla/5.0 (Windows NT 10.0; Win64; x64) AppleWebKit/537.36 (KHTML, like Gecko) draw.io/22.1.16 Chrome/120.0.6099.109 Electron/28.1.0 Safari/537.36" etag="1l5lOeCZsIY_CGXN3v8R" version="22.1.16" type="device">
  <diagram name="Page-1" id="KUOIxhLrdH5m6Z1wRAJG">
    <mxGraphModel dx="1500" dy="887" grid="1" gridSize="10" guides="1" tooltips="1" connect="1" arrows="1" fold="1" page="1" pageScale="1" pageWidth="850" pageHeight="1100" math="0" shadow="0">
      <root>
        <mxCell id="0" />
        <mxCell id="1" parent="0" />
        <mxCell id="L6zsH1XJGN09ZA39lRYW-44" style="edgeStyle=orthogonalEdgeStyle;rounded=0;orthogonalLoop=1;jettySize=auto;html=1;strokeWidth=2;endArrow=none;endFill=0;" edge="1" parent="1" source="L6zsH1XJGN09ZA39lRYW-1" target="L6zsH1XJGN09ZA39lRYW-23">
          <mxGeometry relative="1" as="geometry" />
        </mxCell>
        <mxCell id="L6zsH1XJGN09ZA39lRYW-45" style="edgeStyle=orthogonalEdgeStyle;rounded=0;orthogonalLoop=1;jettySize=auto;html=1;entryX=0.5;entryY=0;entryDx=0;entryDy=0;strokeWidth=2;endArrow=none;endFill=0;" edge="1" parent="1" source="L6zsH1XJGN09ZA39lRYW-1" target="L6zsH1XJGN09ZA39lRYW-13">
          <mxGeometry relative="1" as="geometry">
            <Array as="points">
              <mxPoint x="530" y="170" />
              <mxPoint x="300" y="170" />
            </Array>
          </mxGeometry>
        </mxCell>
        <mxCell id="L6zsH1XJGN09ZA39lRYW-46" style="edgeStyle=orthogonalEdgeStyle;rounded=0;orthogonalLoop=1;jettySize=auto;html=1;strokeWidth=2;endArrow=none;endFill=0;" edge="1" parent="1" source="L6zsH1XJGN09ZA39lRYW-1" target="L6zsH1XJGN09ZA39lRYW-2">
          <mxGeometry relative="1" as="geometry">
            <Array as="points">
              <mxPoint x="530" y="170" />
              <mxPoint x="100" y="170" />
            </Array>
          </mxGeometry>
        </mxCell>
        <mxCell id="L6zsH1XJGN09ZA39lRYW-47" style="edgeStyle=orthogonalEdgeStyle;rounded=0;orthogonalLoop=1;jettySize=auto;html=1;strokeWidth=2;endArrow=none;endFill=0;" edge="1" parent="1" source="L6zsH1XJGN09ZA39lRYW-1" target="L6zsH1XJGN09ZA39lRYW-33">
          <mxGeometry relative="1" as="geometry" />
        </mxCell>
        <mxCell id="L6zsH1XJGN09ZA39lRYW-48" style="edgeStyle=orthogonalEdgeStyle;rounded=0;orthogonalLoop=1;jettySize=auto;html=1;strokeWidth=2;endArrow=none;endFill=0;" edge="1" parent="1" source="L6zsH1XJGN09ZA39lRYW-1" target="L6zsH1XJGN09ZA39lRYW-40">
          <mxGeometry relative="1" as="geometry">
            <Array as="points">
              <mxPoint x="530" y="170" />
              <mxPoint x="900" y="170" />
            </Array>
          </mxGeometry>
        </mxCell>
        <mxCell id="L6zsH1XJGN09ZA39lRYW-1" value="&lt;font style=&quot;font-size: 20px;&quot;&gt;Website Đặt Lịch&lt;br&gt;Sửa Chữa và bảo hành&lt;/font&gt;" style="rounded=0;whiteSpace=wrap;html=1;" vertex="1" parent="1">
          <mxGeometry x="420" y="60" width="220" height="80" as="geometry" />
        </mxCell>
        <mxCell id="L6zsH1XJGN09ZA39lRYW-4" style="edgeStyle=orthogonalEdgeStyle;rounded=0;orthogonalLoop=1;jettySize=auto;html=1;entryX=0;entryY=0.5;entryDx=0;entryDy=0;strokeWidth=2;endArrow=none;endFill=0;" edge="1" parent="1" source="L6zsH1XJGN09ZA39lRYW-2" target="L6zsH1XJGN09ZA39lRYW-3">
          <mxGeometry relative="1" as="geometry" />
        </mxCell>
        <mxCell id="L6zsH1XJGN09ZA39lRYW-8" style="edgeStyle=orthogonalEdgeStyle;rounded=0;orthogonalLoop=1;jettySize=auto;html=1;exitX=0.5;exitY=1;exitDx=0;exitDy=0;entryX=0;entryY=0.5;entryDx=0;entryDy=0;strokeWidth=2;endArrow=none;endFill=0;" edge="1" parent="1" source="L6zsH1XJGN09ZA39lRYW-2" target="L6zsH1XJGN09ZA39lRYW-6">
          <mxGeometry relative="1" as="geometry" />
        </mxCell>
        <mxCell id="L6zsH1XJGN09ZA39lRYW-9" style="edgeStyle=orthogonalEdgeStyle;rounded=0;orthogonalLoop=1;jettySize=auto;html=1;entryX=0;entryY=0.5;entryDx=0;entryDy=0;strokeWidth=2;endArrow=none;endFill=0;" edge="1" parent="1" source="L6zsH1XJGN09ZA39lRYW-2" target="L6zsH1XJGN09ZA39lRYW-7">
          <mxGeometry relative="1" as="geometry" />
        </mxCell>
        <mxCell id="L6zsH1XJGN09ZA39lRYW-2" value="&lt;font style=&quot;font-size: 20px;&quot;&gt;Đăng nhập&lt;/font&gt;" style="rounded=0;whiteSpace=wrap;html=1;" vertex="1" parent="1">
          <mxGeometry x="40" y="200" width="120" height="60" as="geometry" />
        </mxCell>
        <mxCell id="L6zsH1XJGN09ZA39lRYW-3" value="Đăng ký" style="rounded=0;whiteSpace=wrap;html=1;fontSize=20;" vertex="1" parent="1">
          <mxGeometry x="120" y="290" width="120" height="60" as="geometry" />
        </mxCell>
        <mxCell id="L6zsH1XJGN09ZA39lRYW-6" value="Quên mật khẩu" style="rounded=0;whiteSpace=wrap;html=1;fontSize=20;" vertex="1" parent="1">
          <mxGeometry x="120" y="380" width="120" height="60" as="geometry" />
        </mxCell>
        <mxCell id="L6zsH1XJGN09ZA39lRYW-7" value="Đăng xuất" style="rounded=0;whiteSpace=wrap;html=1;fontSize=20;" vertex="1" parent="1">
          <mxGeometry x="120" y="470" width="120" height="60" as="geometry" />
        </mxCell>
        <mxCell id="L6zsH1XJGN09ZA39lRYW-10" style="edgeStyle=orthogonalEdgeStyle;rounded=0;orthogonalLoop=1;jettySize=auto;html=1;entryX=0;entryY=0.5;entryDx=0;entryDy=0;strokeWidth=2;endArrow=none;endFill=0;" edge="1" parent="1" source="L6zsH1XJGN09ZA39lRYW-13" target="L6zsH1XJGN09ZA39lRYW-14">
          <mxGeometry relative="1" as="geometry" />
        </mxCell>
        <mxCell id="L6zsH1XJGN09ZA39lRYW-11" style="edgeStyle=orthogonalEdgeStyle;rounded=0;orthogonalLoop=1;jettySize=auto;html=1;exitX=0.5;exitY=1;exitDx=0;exitDy=0;entryX=0;entryY=0.5;entryDx=0;entryDy=0;strokeWidth=2;endArrow=none;endFill=0;" edge="1" parent="1" source="L6zsH1XJGN09ZA39lRYW-13" target="L6zsH1XJGN09ZA39lRYW-15">
          <mxGeometry relative="1" as="geometry" />
        </mxCell>
        <mxCell id="L6zsH1XJGN09ZA39lRYW-12" style="edgeStyle=orthogonalEdgeStyle;rounded=0;orthogonalLoop=1;jettySize=auto;html=1;entryX=0;entryY=0.5;entryDx=0;entryDy=0;strokeWidth=2;endArrow=none;endFill=0;" edge="1" parent="1" source="L6zsH1XJGN09ZA39lRYW-13" target="L6zsH1XJGN09ZA39lRYW-16">
          <mxGeometry relative="1" as="geometry" />
        </mxCell>
        <mxCell id="L6zsH1XJGN09ZA39lRYW-18" style="edgeStyle=orthogonalEdgeStyle;rounded=0;orthogonalLoop=1;jettySize=auto;html=1;entryX=0;entryY=0.5;entryDx=0;entryDy=0;strokeWidth=2;endArrow=none;endFill=0;" edge="1" parent="1" source="L6zsH1XJGN09ZA39lRYW-13" target="L6zsH1XJGN09ZA39lRYW-17">
          <mxGeometry relative="1" as="geometry" />
        </mxCell>
        <mxCell id="L6zsH1XJGN09ZA39lRYW-13" value="&lt;font style=&quot;font-size: 20px;&quot;&gt;Quản lý tài khoản&lt;/font&gt;" style="rounded=0;whiteSpace=wrap;html=1;" vertex="1" parent="1">
          <mxGeometry x="240" y="200" width="120" height="60" as="geometry" />
        </mxCell>
        <mxCell id="L6zsH1XJGN09ZA39lRYW-14" value="Thêm" style="rounded=0;whiteSpace=wrap;html=1;fontSize=20;" vertex="1" parent="1">
          <mxGeometry x="320" y="290" width="120" height="60" as="geometry" />
        </mxCell>
        <mxCell id="L6zsH1XJGN09ZA39lRYW-15" value="Sửa" style="rounded=0;whiteSpace=wrap;html=1;fontSize=20;" vertex="1" parent="1">
          <mxGeometry x="320" y="380" width="120" height="60" as="geometry" />
        </mxCell>
        <mxCell id="L6zsH1XJGN09ZA39lRYW-16" value="Xoá" style="rounded=0;whiteSpace=wrap;html=1;fontSize=20;" vertex="1" parent="1">
          <mxGeometry x="320" y="470" width="120" height="60" as="geometry" />
        </mxCell>
        <mxCell id="L6zsH1XJGN09ZA39lRYW-17" value="Tìm kiếm" style="rounded=0;whiteSpace=wrap;html=1;fontSize=20;" vertex="1" parent="1">
          <mxGeometry x="320" y="560" width="120" height="60" as="geometry" />
        </mxCell>
        <mxCell id="L6zsH1XJGN09ZA39lRYW-19" style="edgeStyle=orthogonalEdgeStyle;rounded=0;orthogonalLoop=1;jettySize=auto;html=1;entryX=0;entryY=0.5;entryDx=0;entryDy=0;strokeWidth=2;endArrow=none;endFill=0;" edge="1" parent="1" source="L6zsH1XJGN09ZA39lRYW-23" target="L6zsH1XJGN09ZA39lRYW-24">
          <mxGeometry relative="1" as="geometry" />
        </mxCell>
        <mxCell id="L6zsH1XJGN09ZA39lRYW-20" style="edgeStyle=orthogonalEdgeStyle;rounded=0;orthogonalLoop=1;jettySize=auto;html=1;exitX=0.5;exitY=1;exitDx=0;exitDy=0;entryX=0;entryY=0.5;entryDx=0;entryDy=0;strokeWidth=2;endArrow=none;endFill=0;" edge="1" parent="1" source="L6zsH1XJGN09ZA39lRYW-23" target="L6zsH1XJGN09ZA39lRYW-25">
          <mxGeometry relative="1" as="geometry" />
        </mxCell>
        <mxCell id="L6zsH1XJGN09ZA39lRYW-21" style="edgeStyle=orthogonalEdgeStyle;rounded=0;orthogonalLoop=1;jettySize=auto;html=1;entryX=0;entryY=0.5;entryDx=0;entryDy=0;strokeWidth=2;endArrow=none;endFill=0;" edge="1" parent="1" source="L6zsH1XJGN09ZA39lRYW-23" target="L6zsH1XJGN09ZA39lRYW-26">
          <mxGeometry relative="1" as="geometry" />
        </mxCell>
        <mxCell id="L6zsH1XJGN09ZA39lRYW-22" style="edgeStyle=orthogonalEdgeStyle;rounded=0;orthogonalLoop=1;jettySize=auto;html=1;entryX=0;entryY=0.5;entryDx=0;entryDy=0;strokeWidth=2;endArrow=none;endFill=0;" edge="1" parent="1" source="L6zsH1XJGN09ZA39lRYW-23" target="L6zsH1XJGN09ZA39lRYW-27">
          <mxGeometry relative="1" as="geometry" />
        </mxCell>
        <mxCell id="L6zsH1XJGN09ZA39lRYW-29" style="edgeStyle=orthogonalEdgeStyle;rounded=0;orthogonalLoop=1;jettySize=auto;html=1;entryX=0;entryY=0.5;entryDx=0;entryDy=0;strokeWidth=2;endArrow=none;endFill=0;" edge="1" parent="1" source="L6zsH1XJGN09ZA39lRYW-23" target="L6zsH1XJGN09ZA39lRYW-28">
          <mxGeometry relative="1" as="geometry" />
        </mxCell>
        <mxCell id="L6zsH1XJGN09ZA39lRYW-23" value="&lt;font style=&quot;font-size: 20px;&quot;&gt;Quản lý yêu cầu&lt;/font&gt;" style="rounded=0;whiteSpace=wrap;html=1;" vertex="1" parent="1">
          <mxGeometry x="440" y="200" width="120" height="60" as="geometry" />
        </mxCell>
        <mxCell id="L6zsH1XJGN09ZA39lRYW-24" value="Thêm" style="rounded=0;whiteSpace=wrap;html=1;fontSize=20;" vertex="1" parent="1">
          <mxGeometry x="520" y="290" width="120" height="60" as="geometry" />
        </mxCell>
        <mxCell id="L6zsH1XJGN09ZA39lRYW-25" value="Cập nhật&lt;br&gt;trạng thái" style="rounded=0;whiteSpace=wrap;html=1;fontSize=20;" vertex="1" parent="1">
          <mxGeometry x="520" y="380" width="120" height="60" as="geometry" />
        </mxCell>
        <mxCell id="L6zsH1XJGN09ZA39lRYW-26" value="&lt;font style=&quot;font-size: 18px;&quot;&gt;Phân nhân viên phụ trách&lt;/font&gt;" style="rounded=0;whiteSpace=wrap;html=1;fontSize=20;" vertex="1" parent="1">
          <mxGeometry x="520" y="470" width="120" height="60" as="geometry" />
        </mxCell>
        <mxCell id="L6zsH1XJGN09ZA39lRYW-27" value="Tìm kiếm" style="rounded=0;whiteSpace=wrap;html=1;fontSize=20;" vertex="1" parent="1">
          <mxGeometry x="520" y="560" width="120" height="60" as="geometry" />
        </mxCell>
        <mxCell id="L6zsH1XJGN09ZA39lRYW-28" value="Xoá" style="rounded=0;whiteSpace=wrap;html=1;fontSize=20;" vertex="1" parent="1">
          <mxGeometry x="520" y="650" width="120" height="60" as="geometry" />
        </mxCell>
        <mxCell id="L6zsH1XJGN09ZA39lRYW-30" style="edgeStyle=orthogonalEdgeStyle;rounded=0;orthogonalLoop=1;jettySize=auto;html=1;entryX=0;entryY=0.5;entryDx=0;entryDy=0;strokeWidth=2;endArrow=none;endFill=0;" edge="1" parent="1" source="L6zsH1XJGN09ZA39lRYW-33" target="L6zsH1XJGN09ZA39lRYW-34">
          <mxGeometry relative="1" as="geometry" />
        </mxCell>
        <mxCell id="L6zsH1XJGN09ZA39lRYW-31" style="edgeStyle=orthogonalEdgeStyle;rounded=0;orthogonalLoop=1;jettySize=auto;html=1;exitX=0.5;exitY=1;exitDx=0;exitDy=0;entryX=0;entryY=0.5;entryDx=0;entryDy=0;strokeWidth=2;endArrow=none;endFill=0;" edge="1" parent="1" source="L6zsH1XJGN09ZA39lRYW-33" target="L6zsH1XJGN09ZA39lRYW-35">
          <mxGeometry relative="1" as="geometry" />
        </mxCell>
        <mxCell id="L6zsH1XJGN09ZA39lRYW-32" style="edgeStyle=orthogonalEdgeStyle;rounded=0;orthogonalLoop=1;jettySize=auto;html=1;entryX=0;entryY=0.5;entryDx=0;entryDy=0;strokeWidth=2;endArrow=none;endFill=0;" edge="1" parent="1" source="L6zsH1XJGN09ZA39lRYW-33" target="L6zsH1XJGN09ZA39lRYW-36">
          <mxGeometry relative="1" as="geometry" />
        </mxCell>
        <mxCell id="L6zsH1XJGN09ZA39lRYW-33" value="&lt;span style=&quot;font-size: 20px;&quot;&gt;Đặt yêu cầu sửa chữa&lt;/span&gt;" style="rounded=0;whiteSpace=wrap;html=1;" vertex="1" parent="1">
          <mxGeometry x="640" y="200" width="120" height="60" as="geometry" />
        </mxCell>
        <mxCell id="L6zsH1XJGN09ZA39lRYW-34" value="Đặt yêu&lt;br&gt;cầu mới" style="rounded=0;whiteSpace=wrap;html=1;fontSize=20;" vertex="1" parent="1">
          <mxGeometry x="720" y="290" width="120" height="60" as="geometry" />
        </mxCell>
        <mxCell id="L6zsH1XJGN09ZA39lRYW-35" value="Tra cứu&lt;br&gt;yêu cầu" style="rounded=0;whiteSpace=wrap;html=1;fontSize=20;" vertex="1" parent="1">
          <mxGeometry x="720" y="380" width="120" height="60" as="geometry" />
        </mxCell>
        <mxCell id="L6zsH1XJGN09ZA39lRYW-36" value="Huỷ yêu cầu" style="rounded=0;whiteSpace=wrap;html=1;fontSize=20;" vertex="1" parent="1">
          <mxGeometry x="720" y="470" width="120" height="60" as="geometry" />
        </mxCell>
        <mxCell id="L6zsH1XJGN09ZA39lRYW-37" style="edgeStyle=orthogonalEdgeStyle;rounded=0;orthogonalLoop=1;jettySize=auto;html=1;entryX=0;entryY=0.5;entryDx=0;entryDy=0;strokeWidth=2;endArrow=none;endFill=0;" edge="1" parent="1" source="L6zsH1XJGN09ZA39lRYW-40" target="L6zsH1XJGN09ZA39lRYW-41">
          <mxGeometry relative="1" as="geometry" />
        </mxCell>
        <mxCell id="L6zsH1XJGN09ZA39lRYW-38" style="edgeStyle=orthogonalEdgeStyle;rounded=0;orthogonalLoop=1;jettySize=auto;html=1;exitX=0.5;exitY=1;exitDx=0;exitDy=0;entryX=0;entryY=0.5;entryDx=0;entryDy=0;strokeWidth=2;endArrow=none;endFill=0;" edge="1" parent="1" source="L6zsH1XJGN09ZA39lRYW-40" target="L6zsH1XJGN09ZA39lRYW-42">
          <mxGeometry relative="1" as="geometry" />
        </mxCell>
        <mxCell id="L6zsH1XJGN09ZA39lRYW-39" style="edgeStyle=orthogonalEdgeStyle;rounded=0;orthogonalLoop=1;jettySize=auto;html=1;entryX=0;entryY=0.5;entryDx=0;entryDy=0;strokeWidth=2;endArrow=none;endFill=0;" edge="1" parent="1" source="L6zsH1XJGN09ZA39lRYW-40" target="L6zsH1XJGN09ZA39lRYW-43">
          <mxGeometry relative="1" as="geometry" />
        </mxCell>
        <mxCell id="L6zsH1XJGN09ZA39lRYW-40" value="&lt;font style=&quot;font-size: 20px;&quot;&gt;Báo cáo thống kê&lt;/font&gt;" style="rounded=0;whiteSpace=wrap;html=1;" vertex="1" parent="1">
          <mxGeometry x="840" y="200" width="120" height="60" as="geometry" />
        </mxCell>
        <mxCell id="L6zsH1XJGN09ZA39lRYW-41" value="Xem báo cáo&lt;span style=&quot;white-space: pre;&quot;&gt;&#x9;&lt;/span&gt;" style="rounded=0;whiteSpace=wrap;html=1;fontSize=20;" vertex="1" parent="1">
          <mxGeometry x="920" y="290" width="120" height="60" as="geometry" />
        </mxCell>
        <mxCell id="L6zsH1XJGN09ZA39lRYW-42" value="Xuất báo cáo" style="rounded=0;whiteSpace=wrap;html=1;fontSize=20;" vertex="1" parent="1">
          <mxGeometry x="920" y="380" width="120" height="60" as="geometry" />
        </mxCell>
        <mxCell id="L6zsH1XJGN09ZA39lRYW-43" value="In báo cáo" style="rounded=0;whiteSpace=wrap;html=1;fontSize=20;" vertex="1" parent="1">
          <mxGeometry x="920" y="470" width="120" height="60" as="geometry" />
        </mxCell>
      </root>
    </mxGraphModel>
  </diagram>
</mxfile>
